<svg xmlns="http://www.w3.org/2000/svg" width="73.595" height="73.595" viewBox="0 0 73.595 73.595"><defs><style>.a{fill:#e6af78;}.b{fill:#1bb180;}.c{fill:#d29b6e;}.d{fill:#f0c087;}.e{fill:#13a676;}.f{fill:#5b5d6e;}.g{fill:#515262;}.h{fill:#785550;}.i{fill:#694b4b;}.j{fill:#5a4146;}.k{fill:#ccc;}.l{fill:#bbb;}.m{fill:#707487;}.n{opacity:0.97;}</style></defs><path class="a" d="M308.976,207.938v-3.947h10.148v3.947l-5.074,4.51Z" transform="translate(-289.941 -174.669)"/><path class="b" d="M244.036,232.858l6.976-1.642a1.122,1.122,0,0,0,.293-.118l5.65,3.3,5.43-3.456a1.123,1.123,0,0,0,.513.277l6.976,1.642a2.255,2.255,0,0,1,1.739,2.2V240.6l-14.659,2.827L242.3,240.6v-5.543A2.255,2.255,0,0,1,244.036,232.858Z" transform="translate(-232.847 -197.744)"/><path class="c" d="M319.124,203.991v4.164c-6.392,2.3-10.148-3.461-10.148-3.461v-.7Z" transform="translate(-289.941 -174.669)"/><path class="d" d="M307.944,113.778l-.491,10.809a3.383,3.383,0,0,1-1.35,2.553l-2.331,1.748a3.383,3.383,0,0,1-2.03.677h-2.255a3.383,3.383,0,0,1-2.03-.677l-2.331-1.748a3.383,3.383,0,0,1-1.35-2.553l-.491-10.809Z" transform="translate(-276.506 -97.423)"/><path class="a" d="M299.725,116.034c-2.255,0-5.638-.564-6.44-2.255h12.078l-.491,10.809a3.383,3.383,0,0,1-1.35,2.553l-2.331,1.748a3.383,3.383,0,0,1-2.03.677h-1.128c1.128,0,3.383-2.255,3.383-5.074v-6.766A1.8,1.8,0,0,0,299.725,116.034Z" transform="translate(-273.925 -97.424)"/><g transform="translate(9.45 35.912)"><path class="e" d="M415.1,253.121l-3.653-3.282a2.251,2.251,0,0,0-.486,1.4v4.416a1.128,1.128,0,0,0,1.128,1.128h3.947v-1.562A2.818,2.818,0,0,0,415.1,253.121Z" transform="translate(-410.956 -249.839)"/><path class="e" d="M243.231,253.121l3.653-3.282a2.251,2.251,0,0,1,.486,1.4v4.416a1.128,1.128,0,0,1-1.128,1.128H242.3v-1.562A2.818,2.818,0,0,1,243.231,253.121Z" transform="translate(-218.053 -249.839)"/></g><path class="f" d="M334.47,270.437h2.819l-.352-7.612h-2.114Z" transform="translate(-311.771 -225.046)"/><path class="g" d="M334.47,254.98h2.819v.665a1.027,1.027,0,0,1-1.027,1.027H335.5a1.027,1.027,0,0,1-1.027-1.027v-.665Z" transform="translate(-311.771 -218.329)"/><g transform="translate(17.343 31.868)"><path class="e" d="M302.361,221.852l-5.153,4.638a19.44,19.44,0,0,1,3.224,2.2.723.723,0,0,0,1.12-.253l2.421-5.326-.766-1.149A.564.564,0,0,0,302.361,221.852Z" transform="translate(-290.442 -221.708)"/><path class="e" d="M345.888,221.852l5.153,4.638a19.44,19.44,0,0,0-3.224,2.2.723.723,0,0,1-1.12-.253l-2.421-5.326.766-1.149A.564.564,0,0,1,345.888,221.852Z" transform="translate(-344.276 -221.708)"/></g><path class="h" d="M373.63,85.707l-.529,3.735c-2.413.483-2.76,4.269-2.811,5.35a1.111,1.111,0,0,1-.178.551l-.921,1.428a5.4,5.4,0,0,0-1.128-3.947S367.569,83.451,373.63,85.707Z" transform="translate(-352.939 -73.087)"/><path class="d" d="M386.887,154.451l.637,2.547a.678.678,0,0,0,.658.513h0a.678.678,0,0,0,.673-.594l.326-2.6A1.167,1.167,0,0,0,388.022,153h0A1.167,1.167,0,0,0,386.887,154.451Z" transform="translate(-371.2 -131.009)"/><path class="i" d="M294.172,72.081l-.834.57c3.77,2.784,3.066,7.558,3.066,7.558-1.127,1.127-1.127,3.947-1.127,3.947l-1.128-1.128s.435-3.257-1.691-4.51c-1.973-1.163-3.7-.564-5.462-.564-4.722,0-6.043-1.779-5.814-3.947.118-1.121,1.833-3.457,6.2-3.383A18.972,18.972,0,0,1,294.172,72.081Z" transform="translate(-263.275 -60.472)"/><path class="j" d="M290.694,89.538a6.193,6.193,0,0,0-1.163-4.81c3.77,2.784,3.066,7.558,3.066,7.558-1.128,1.128-1.128,3.947-1.128,3.947l-1.128-1.128s.435-3.257-1.691-4.51c-1.973-1.163-3.7-.564-5.462-.564a13.855,13.855,0,0,1-2.033-.14C284.792,90.014,286.936,87.259,290.694,89.538Z" transform="translate(-259.468 -72.549)"/><path class="a" d="M287.744,154.451,287.107,157a.678.678,0,0,1-.658.513h0a.678.678,0,0,1-.673-.594l-.326-2.6A1.167,1.167,0,0,1,286.609,153h0A1.167,1.167,0,0,1,287.744,154.451Z" transform="translate(-255.214 -131.009)"/><path class="e" d="M364.708,290.281h3.432a.821.821,0,0,1,.821.821v1.864h-5.074V291.1A.821.821,0,0,1,364.708,290.281Z" transform="translate(-347.671 -248.556)"/><rect class="k" width="4.591" height="11.664" transform="translate(49.842 46.595) rotate(135)"/><path class="l" d="M208.59,269.679a26.8,26.8,0,0,1-3.246,3.246l-2.9-2.9,3.246-3.246Z" transform="translate(-164.093 -228.429)"/><path class="k" d="M200.661,0a24.109,24.109,0,1,1-24.109,24.109A24.109,24.109,0,0,1,200.661,0Zm0,44.411a20.3,20.3,0,1,0-20.3-20.3A20.3,20.3,0,0,0,200.661,44.411Z" transform="translate(-176.552)"/><path class="m" d="M25.749,337.407l2.692-2.691a2.538,2.538,0,0,0,0-3.589L7.024,309.71a2.538,2.538,0,0,0-3.589,0L.743,312.4a2.538,2.538,0,0,0,0,3.589L22.16,337.407A2.538,2.538,0,0,0,25.749,337.407Z" transform="translate(44.411 -264.555)"/><path class="f" d="M25.163,333.664,3.746,312.247a2.538,2.538,0,0,0-3.589,0L0,312.4l0,0,2.692-2.691a2.538,2.538,0,0,1,3.589,0L27.7,331.127a2.538,2.538,0,0,1,0,3.589l-2.536,2.535A2.538,2.538,0,0,0,25.163,333.664Z" transform="translate(45.151 -264.555)"/><path class="k" d="M145.6,317.555l-1.564-1.564a2.538,2.538,0,0,1,0-3.589l2.692-2.691a2.538,2.538,0,0,1,3.589,0l1.563,1.563Z" transform="translate(-98.882 -264.556)"/><g class="n" transform="translate(45.152 44.411)"><path class="l" d="M148.6,313.811l-1.563-1.563a2.538,2.538,0,0,0-3.589,0l-.157.157,0,0,2.692-2.691a2.538,2.538,0,0,1,3.589,0l1.563,1.563Z" transform="translate(-143.293 -308.966)"/></g></svg>